#N canvas 326 68 731 586 10;
#X obj 658 441 *;
#X obj 661 313 +;
#X floatatom 598 325 5 0 0 0 - - -;
#X floatatom 550 442 5 0 0 0 - - -;
#X obj 599 377 * 10;
#X obj 641 378 *~;
#X floatatom 34 256 8 0 0 0 - - -;
#X obj 32 235 hsl 128 15 20 20000 0 0 empty empty freq -2 -6 0 8 -262144
-1 -1 0 1;
#X obj 29 449 dac~;
#X obj 32 364 *~;
#X obj 282 444 dac~ 1;
#X obj 338 444 dac~ 2;
#X obj 387 444 dac~ 3;
#X obj 438 446 dac~ 4;
#X floatatom 61 374 5 0 0 0 - - -;
#X obj 64 352 hsl 128 15 0 1 0 0 empty empty vol_contrl -2 -6 0 8 -262144
-1 -1 0 1;
#X obj 34 291 osc~;
#X msg 443 36 \; pd dsp 1 \;;
#X msg 518 36 \; pd dsp 0 \;;
#X floatatom 319 189 8 0 0 0 - - -;
#X obj 322 152 hsl 128 15 20 20000 0 0 empty empty freq -2 -6 0 8 -262144
-1 -1 0 1;
#X obj 322 409 dac~;
#X obj 320 285 *~;
#X floatatom 336 261 5 0 0 0 - - -;
#X obj 339 239 hsl 128 15 0 1 0 0 empty empty vol_contrl -2 -6 0 8
-262144 -1 -1 0 1;
#X obj 319 208 osc~;
#X floatatom 483 151 8 0 0 0 - - -;
#X obj 486 114 hsl 128 15 20 20000 0 0 empty empty freq -2 -6 0 8 -262144
-1 -1 0 1;
#X obj 475 349 dac~;
#X obj 487 285 *~;
#X floatatom 503 261 5 0 0 0 - - -;
#X obj 506 239 hsl 128 15 0 1 0 0 empty empty vol_contrl -2 -6 0 8
-262144 -1 -1 0 1;
#X obj 486 191 osc~;
#X obj 34 315 dist~;
#X obj 31 46 random 500;
#X floatatom 83 3 5 0 0 0 - - -;
#X obj 32 22 metro 500;
#X obj 32 -17 tgl 15 0 empty empty empty 0 -6 0 8 -262144 -1 -1 0 1
;
#X obj 319 318 delay~ 44100;
#X floatatom 305 82 5 0 0 0 - - -;
#X floatatom 364 17 5 0 0 0 - - -;
#X obj 305 35 metro 500;
#X obj 305 7 tgl 15 0 empty empty empty 0 -6 0 8 -262144 -1 -1 0 1
;
#X obj 305 59 random 100;
#X floatatom 305 125 5 0 0 0 - - -;
#X obj 305 104 + 1000;
#X floatatom 31 65 5 0 0 0 - - -;
#X floatatom 31 210 5 0 0 0 - - -;
#X obj 31 85 + 1000;
#X obj 503 399 receive bilgi;
#X obj 100 93 receive thera;
#X floatatom 100 112 5 0 0 0 - - -;
#X obj 31 188 autoscale 0 2000;
#X obj 100 129 * 100;
#X floatatom 100 149 5 0 0 0 - - -;
#X obj 99 165 int;
#X floatatom 31 141 5 0 0 0 - - -;
#X text 95 25 metro object;
#X text 87 254 frequency range for;
#X text 88 267 oscillator;
#X text 65 290 oscillator object;
#X text 98 374 volume controller;
#X text 59 454 digital to analog converter;
#X text 48 -19 toggle starts/stops the metronom object;
#X text 102 43 random object generates;
#X text 103 56 number between 0 and target;
#X text 102 69 number;
#X text 149 115 it receives data;
#X text 147 127 from send object;
#X text 134 188 hans \, autoscale;
#X text 443 3 compute audio control;
#X text 445 15 digital sound processing on/off;
#X connect 2 0 4 0;
#X connect 4 0 3 0;
#X connect 6 0 16 0;
#X connect 7 0 6 0;
#X connect 9 0 8 0;
#X connect 9 0 8 1;
#X connect 14 0 9 1;
#X connect 15 0 14 0;
#X connect 16 0 33 0;
#X connect 19 0 25 0;
#X connect 20 0 19 0;
#X connect 22 0 38 0;
#X connect 23 0 22 1;
#X connect 24 0 23 0;
#X connect 25 0 22 0;
#X connect 26 0 32 0;
#X connect 27 0 26 0;
#X connect 29 0 28 0;
#X connect 29 0 28 1;
#X connect 30 0 29 1;
#X connect 31 0 30 0;
#X connect 32 0 29 0;
#X connect 33 0 9 0;
#X connect 34 0 46 0;
#X connect 35 0 36 1;
#X connect 36 0 34 0;
#X connect 37 0 36 0;
#X connect 38 0 21 0;
#X connect 38 0 21 1;
#X connect 39 0 45 0;
#X connect 40 0 41 1;
#X connect 41 0 43 0;
#X connect 42 0 41 0;
#X connect 43 0 39 0;
#X connect 44 0 20 0;
#X connect 45 0 44 0;
#X connect 46 0 48 0;
#X connect 47 0 7 0;
#X connect 48 0 56 0;
#X connect 49 0 3 0;
#X connect 50 0 51 0;
#X connect 51 0 53 0;
#X connect 52 0 47 0;
#X connect 53 0 54 0;
#X connect 54 0 55 0;
#X connect 55 0 56 0;
#X connect 56 0 52 0;
